<?xml version="1.0" encoding="iso-8859-1"?>
<!-- Generator: Adobe Illustrator 19.0.0, SVG Export Plug-In . SVG Version: 6.00 Build 0)  -->
<svg version="1.1" id="Capa_1" xmlns="http://www.w3.org/2000/svg" xmlns:xlink="http://www.w3.org/1999/xlink" x="0px" y="0px"
	 viewBox="0 0 464 464" style="enable-background:new 0 0 464 464;" xml:space="preserve">
<path style="fill:#DB735C;" d="M464,231.997C464.001,360.127,360.133,463.999,232.003,464S0.001,360.133,0,232.003
	S103.867,0.002,231.997,0c0.001,0,0.002,0,0.003,0C360.129,0.001,463.998,103.869,464,231.997z"/>
<path style="fill:#AD5B49;" d="M464,231.997c0.076-61.796-24.583-121.051-68.477-164.549L64.279,392.197
	c88.439,92.665,235.253,96.091,327.918,7.652C438.071,356.066,464.018,295.411,464,231.997L464,231.997z"/>
<circle style="fill:#EEEEED;" cx="232" cy="232" r="200"/>
<path style="fill:#CBD6CD;" d="M232,432c110.443,0.014,199.986-89.507,200-199.951c0.007-53.474-21.403-104.722-59.448-142.299
	L87.706,370.408C125.364,409.797,177.505,432.053,232,432z"/>
<path style="fill:#38C9B5;" d="M200,200l64,64l80-144L200,200z"/>
<path style="fill:#2FA898;" d="M264,264l80-144l-4.928,2.736L230.104,230.104L264,264z"/>
<g>
	<path style="fill:#1C403B;" d="M392,224h40v16h-40V224z"/>
	<path style="fill:#1C403B;" d="M32,224h40v16H32V224z"/>
	<path style="fill:#1C403B;" d="M224,392h16v40h-16V392z"/>
	<path style="fill:#1C403B;" d="M224,32h16v40h-16V32z"/>
</g>
<path style="fill:#E6B44A;" d="M264,264l-64-64l-88,144L264,264z"/>
<path style="fill:#C2983F;" d="M230.104,230.104L112,344l152-80L230.104,230.104z"/>
<g>
</g>
<g>
</g>
<g>
</g>
<g>
</g>
<g>
</g>
<g>
</g>
<g>
</g>
<g>
</g>
<g>
</g>
<g>
</g>
<g>
</g>
<g>
</g>
<g>
</g>
<g>
</g>
<g>
</g>
</svg>
